<?xml version="1.0" encoding="UTF-8" standalone="no"?>
<!-- Generator: Adobe Illustrator 21.0.0, SVG Export Plug-In . SVG Version: 6.00 Build 0)  -->

<svg
   xmlns:dc="http://purl.org/dc/elements/1.1/"
   xmlns:cc="http://creativecommons.org/ns#"
   xmlns:rdf="http://www.w3.org/1999/02/22-rdf-syntax-ns#"
   xmlns:svg="http://www.w3.org/2000/svg"
   xmlns="http://www.w3.org/2000/svg"
   xmlns:sodipodi="http://sodipodi.sourceforge.net/DTD/sodipodi-0.dtd"
   xmlns:inkscape="http://www.inkscape.org/namespaces/inkscape"
   version="1.1"
   id="Capa_1"
   x="0px"
   y="0px"
   width="211px"
   height="133.752px"
   viewBox="0 0 211 133.752"
   enable-background="new 0 0 211 133.752"
   xml:space="preserve"
   inkscape:version="0.48.5 r10040"
   sodipodi:docname="logo.svg"><metadata
   id="metadata123"><rdf:RDF><cc:Work
       rdf:about=""><dc:format>image/svg+xml</dc:format><dc:type
         rdf:resource="http://purl.org/dc/dcmitype/StillImage" /><dc:title></dc:title></cc:Work></rdf:RDF></metadata><defs
   id="defs121" /><sodipodi:namedview
   pagecolor="#ffffff"
   bordercolor="#666666"
   borderopacity="1"
   objecttolerance="10"
   gridtolerance="10"
   guidetolerance="10"
   inkscape:pageopacity="0"
   inkscape:pageshadow="2"
   inkscape:window-width="1600"
   inkscape:window-height="807"
   id="namedview119"
   showgrid="false"
   inkscape:zoom="1.6303318"
   inkscape:cx="3.9869186"
   inkscape:cy="66.875999"
   inkscape:window-x="-8"
   inkscape:window-y="-8"
   inkscape:window-maximized="1"
   inkscape:current-layer="Capa_1" />
<path
   fill="#E86B1F"
   d="M25.832,14.559c-0.156,0.864-1.116,1.823-1.98,1.979c-1.336,0.242-2.004,0.242-3.34,0  c-0.864-0.156-1.824-1.115-1.98-1.979c-0.242-1.337-0.242-2.004,0-3.341c0.156-0.863,1.116-1.823,1.98-1.979  c1.336-0.241,2.004-0.241,3.34,0c0.864,0.156,1.823,1.116,1.98,1.979C26.075,12.555,26.075,13.223,25.832,14.559"
   id="path3" />
<path
   fill="#F1A21E"
   d="M25.831,23.557c-0.156,0.865-1.116,1.823-1.98,1.981c-1.336,0.241-2.004,0.241-3.34,0  c-0.864-0.157-1.824-1.116-1.98-1.981c-0.242-1.336-0.242-2.004,0-3.34c0.156-0.864,1.116-1.823,1.98-1.979  c1.336-0.241,2.004-0.241,3.34,0c0.864,0.156,1.823,1.115,1.98,1.979C26.073,21.553,26.073,22.221,25.831,23.557"
   id="path5" />
<path
   fill="#C73F33"
   d="M16.833,14.559c-0.156,0.864-1.116,1.823-1.98,1.979c-1.337,0.242-2.004,0.242-3.34,0  c-0.865-0.156-1.824-1.115-1.981-1.979c-0.24-1.337-0.24-2.004,0-3.341c0.157-0.863,1.117-1.823,1.981-1.979  c1.335-0.241,2.003-0.241,3.34,0c0.864,0.156,1.823,1.116,1.98,1.979C17.074,12.555,17.074,13.223,16.833,14.559"
   id="path7" />
<path
   fill="#C73F33"
   d="M25.819,5.561c-0.156,0.864-1.116,1.823-1.98,1.979c-1.337,0.242-2.004,0.242-3.34,0  c-0.865-0.156-1.824-1.115-1.981-1.979c-0.24-1.337-0.24-2.004,0-3.341c0.157-0.863,1.117-1.823,1.981-1.979  c1.335-0.241,2.003-0.241,3.34,0c0.864,0.156,1.823,1.116,1.98,1.979C26.06,3.557,26.06,4.224,25.819,5.561"
   id="path9" />
<path
   fill="#E86B1F"
   d="M16.833,23.557c-0.156,0.865-1.116,1.823-1.98,1.981c-1.337,0.241-2.004,0.241-3.34,0  c-0.865-0.157-1.824-1.116-1.981-1.981c-0.24-1.336-0.24-2.004,0-3.34c0.157-0.864,1.117-1.823,1.981-1.979  c1.335-0.241,2.003-0.241,3.34,0c0.864,0.156,1.823,1.115,1.98,1.979C17.074,21.553,17.074,22.221,16.833,23.557"
   id="path11" />
<path
   fill="#C73F33"
   d="M7.54,23.684c-0.156,0.865-1.116,1.823-1.98,1.981c-1.336,0.241-2.004,0.241-3.34,0  c-0.864-0.157-1.824-1.116-1.981-1.981c-0.24-1.336-0.24-2.004,0-3.34c0.157-0.864,1.117-1.823,1.981-1.979  c1.335-0.241,2.004-0.241,3.34,0c0.864,0.156,1.823,1.115,1.98,1.979C7.782,21.68,7.782,22.348,7.54,23.684"
   id="path13" />
<path
   fill="#F1A21E"
   d="M16.833,32.556c-0.156,0.865-1.116,1.824-1.98,1.981c-1.337,0.241-2.004,0.241-3.34,0  c-0.865-0.156-1.824-1.116-1.981-1.981c-0.24-1.335-0.24-2.004,0-3.34c0.157-0.865,1.117-1.824,1.981-1.98  c1.335-0.24,2.003-0.24,3.34,0c0.864,0.156,1.823,1.116,1.98,1.98C17.074,30.551,17.074,31.221,16.833,32.556"
   id="path15" />
<path
   fill="#7AA52A"
   d="M16.833,50.553c-0.156,0.865-1.116,1.825-1.98,1.981c-1.337,0.241-2.004,0.241-3.34,0  c-0.865-0.156-1.824-1.116-1.981-1.981c-0.24-1.336-0.24-2.004,0-3.34c0.157-0.864,1.117-1.823,1.981-1.98  c1.335-0.24,2.003-0.24,3.34,0c0.864,0.157,1.823,1.117,1.98,1.98C17.074,48.549,17.074,49.216,16.833,50.553"
   id="path17" />
<path
   fill="#7AA52A"
   d="M16.833,59.552c-0.156,0.863-1.116,1.823-1.98,1.98c-1.337,0.24-2.004,0.24-3.34,0  c-0.865-0.156-1.824-1.117-1.981-1.98c-0.24-1.337-0.24-2.004,0-3.34c0.157-0.865,1.117-1.824,1.981-1.98  c1.335-0.242,2.003-0.242,3.34,0c0.864,0.156,1.823,1.115,1.98,1.98C17.074,57.548,17.074,58.215,16.833,59.552"
   id="path19" />
<path
   fill="#E86B1F"
   d="M25.83,32.555c-0.156,0.864-1.116,1.825-1.98,1.981c-1.336,0.241-2.004,0.241-3.34,0  c-0.864-0.156-1.824-1.117-1.98-1.981c-0.242-1.335-0.242-2.004,0-3.34c0.156-0.865,1.116-1.823,1.98-1.98  c1.336-0.241,2.004-0.241,3.34,0c0.864,0.156,1.823,1.115,1.98,1.98C26.072,30.552,26.072,31.22,25.83,32.555"
   id="path21" />
<path
   fill="#F1A21E"
   d="M25.828,41.554c-0.156,0.865-1.116,1.824-1.98,1.981c-1.336,0.241-2.004,0.241-3.34,0  c-0.864-0.156-1.824-1.116-1.98-1.981c-0.242-1.335-0.242-2.004,0-3.34c0.156-0.864,1.116-1.823,1.98-1.98  c1.336-0.241,2.004-0.241,3.34,0c0.864,0.156,1.823,1.116,1.98,1.98C26.071,39.55,26.071,40.219,25.828,41.554"
   id="path23" />
<path
   fill="#BDB700"
   d="M25.827,50.553c-0.156,0.865-1.116,1.825-1.98,1.981c-1.336,0.241-2.004,0.241-3.34,0  c-0.864-0.156-1.824-1.116-1.98-1.981c-0.242-1.336-0.242-2.004,0-3.34c0.156-0.864,1.116-1.823,1.98-1.98  c1.336-0.24,2.004-0.24,3.34,0c0.864,0.157,1.823,1.117,1.98,1.98C26.07,48.549,26.07,49.216,25.827,50.553"
   id="path25" />
<path
   fill="#7AA52A"
   d="M25.826,68.55c-0.156,0.864-1.116,1.823-1.98,1.98c-1.336,0.241-2.004,0.241-3.34,0  c-0.864-0.156-1.824-1.116-1.98-1.98c-0.242-1.336-0.242-2.004,0-3.34c0.156-0.864,1.116-1.823,1.98-1.98  c1.336-0.241,2.004-0.241,3.34,0c0.864,0.156,1.823,1.116,1.98,1.98C26.069,66.546,26.069,67.214,25.826,68.55"
   id="path27" />
<path
   fill="#20AB6C"
   d="M25.825,77.547c-0.156,0.865-1.116,1.826-1.98,1.981c-1.336,0.242-2.004,0.242-3.34,0  c-0.864-0.155-1.824-1.115-1.98-1.981c-0.242-1.335-0.242-2.004,0-3.34c0.156-0.864,1.116-1.823,1.98-1.979  c1.336-0.241,2.004-0.241,3.34,0c0.864,0.156,1.823,1.115,1.98,1.979C26.067,75.544,26.067,76.213,25.825,77.547"
   id="path29" />
<path
   fill="#59978A"
   d="M25.824,86.547c-0.156,0.865-1.116,1.823-1.98,1.98c-1.336,0.243-2.004,0.243-3.34,0  c-0.864-0.156-1.824-1.115-1.98-1.98c-0.242-1.335-0.242-2.004,0-3.34c0.156-0.865,1.116-1.823,1.98-1.98  c1.336-0.241,2.004-0.241,3.34,0c0.864,0.156,1.823,1.115,1.98,1.98C26.066,84.543,26.066,85.211,25.824,86.547"
   id="path31" />
<path
   fill="#59978A"
   d="M25.822,95.545c-0.156,0.864-1.116,1.823-1.98,1.979c-1.336,0.243-2.004,0.243-3.34,0  c-0.864-0.156-1.824-1.115-1.98-1.979c-0.242-1.336-0.242-2.005,0-3.34c0.156-0.864,1.116-1.823,1.98-1.98  c1.336-0.24,2.004-0.24,3.34,0c0.864,0.156,1.823,1.116,1.98,1.98C26.065,93.54,26.065,94.209,25.822,95.545"
   id="path33" />
<path
   fill="#20AB6C"
   d="M16.833,68.55c-0.156,0.864-1.116,1.823-1.98,1.98c-1.337,0.241-2.004,0.241-3.34,0  c-0.865-0.156-1.824-1.116-1.981-1.98c-0.24-1.336-0.24-2.004,0-3.34c0.157-0.864,1.117-1.823,1.981-1.98  c1.335-0.241,2.003-0.241,3.34,0c0.864,0.156,1.823,1.116,1.98,1.98C17.074,66.546,17.074,67.214,16.833,68.55"
   id="path35" />
<path
   fill="#59978A"
   d="M16.833,77.547c-0.156,0.865-1.116,1.826-1.98,1.981c-1.337,0.242-2.004,0.242-3.34,0  c-0.865-0.155-1.824-1.115-1.981-1.981c-0.24-1.335-0.24-2.004,0-3.34c0.157-0.864,1.117-1.823,1.981-1.979  c1.335-0.241,2.003-0.241,3.34,0c0.864,0.156,1.823,1.115,1.98,1.979C17.074,75.544,17.074,76.213,16.833,77.547"
   id="path37" />
<path
   fill="#20AB6C"
   d="M16.833,86.547c-0.156,0.865-1.116,1.823-1.98,1.98c-1.337,0.243-2.004,0.243-3.34,0  c-0.865-0.156-1.824-1.115-1.981-1.98c-0.24-1.335-0.24-2.004,0-3.34c0.157-0.865,1.117-1.823,1.981-1.98  c1.335-0.241,2.003-0.241,3.34,0c0.864,0.156,1.823,1.115,1.98,1.98C17.074,84.542,17.074,85.212,16.833,86.547"
   id="path39" />
<path
   fill="#009FAD"
   d="M16.833,95.545c-0.156,0.864-1.116,1.823-1.98,1.979c-1.337,0.243-2.004,0.243-3.34,0  c-0.865-0.156-1.824-1.115-1.981-1.979c-0.24-1.336-0.24-2.005,0-3.34c0.157-0.864,1.117-1.823,1.981-1.98  c1.335-0.24,2.003-0.24,3.34,0c0.864,0.156,1.823,1.116,1.98,1.98C17.074,93.54,17.074,94.209,16.833,95.545"
   id="path41" />
<path
   fill="#009FAD"
   d="M16.833,104.534c-0.156,0.865-1.116,1.824-1.98,1.981c-1.337,0.242-2.004,0.242-3.34,0  c-0.865-0.156-1.824-1.116-1.981-1.981c-0.24-1.336-0.24-2.004,0-3.34c0.157-0.864,1.117-1.823,1.981-1.98  c1.335-0.24,2.003-0.24,3.34,0c0.864,0.156,1.823,1.116,1.98,1.98C17.074,102.529,17.074,103.198,16.833,104.534"
   id="path43" />
<path
   fill="#1F4850"
   d="M25.833,104.534c-0.156,0.865-1.116,1.824-1.98,1.981c-1.336,0.242-2.004,0.242-3.34,0  c-0.864-0.156-1.824-1.116-1.98-1.981c-0.242-1.336-0.242-2.004,0-3.34c0.156-0.864,1.116-1.823,1.98-1.98  c1.336-0.24,2.004-0.24,3.34,0c0.864,0.156,1.823,1.116,1.98,1.98C26.076,102.529,26.076,103.198,25.833,104.534"
   id="path45" />
<path
   fill="#59978A"
   d="M34.832,104.534c-0.156,0.865-1.116,1.824-1.979,1.981c-1.336,0.242-2.005,0.242-3.34,0  c-0.865-0.156-1.824-1.116-1.981-1.981c-0.24-1.336-0.24-2.004,0-3.34c0.157-0.864,1.117-1.823,1.981-1.98  c1.335-0.24,2.004-0.24,3.34,0c0.863,0.156,1.823,1.116,1.979,1.98C35.073,102.529,35.073,103.198,34.832,104.534"
   id="path47" />
<path
   fill="#1F4850"
   d="M25.834,113.533c-0.156,0.863-1.116,1.823-1.98,1.98c-1.336,0.24-2.004,0.24-3.341,0  c-0.862-0.156-1.823-1.117-1.979-1.98c-0.241-1.336-0.241-2.004,0-3.341c0.156-0.864,1.117-1.823,1.979-1.98  c1.337-0.24,2.005-0.24,3.341,0c0.864,0.156,1.823,1.116,1.98,1.98C26.075,111.529,26.075,112.197,25.834,113.533"
   id="path49" />
<path
   fill="#007077"
   d="M25.82,122.531c-0.156,0.864-1.116,1.824-1.98,1.98c-1.336,0.241-2.004,0.241-3.341,0  c-0.862-0.156-1.823-1.116-1.979-1.98c-0.241-1.336-0.241-2.004,0-3.34c0.156-0.864,1.117-1.823,1.979-1.98  c1.337-0.241,2.005-0.241,3.341,0c0.864,0.156,1.823,1.116,1.98,1.98C26.062,120.527,26.062,121.195,25.82,122.531"
   id="path51" />
<path
   fill="#007077"
   d="M34.832,113.533c-0.156,0.863-1.116,1.823-1.979,1.98c-1.336,0.24-2.005,0.24-3.34,0  c-0.865-0.156-1.824-1.117-1.981-1.98c-0.24-1.336-0.24-2.004,0-3.341c0.157-0.864,1.117-1.823,1.981-1.98  c1.335-0.24,2.004-0.24,3.34,0c0.863,0.156,1.823,1.116,1.979,1.98C35.073,111.529,35.073,112.197,34.832,113.533"
   id="path53" />
<path
   fill="#1F4850"
   d="M34.832,122.532c-0.156,0.864-1.116,1.824-1.979,1.98c-1.336,0.241-2.005,0.241-3.34,0  c-0.865-0.156-1.824-1.116-1.981-1.98c-0.24-1.336-0.24-2.004,0-3.34c0.157-0.864,1.117-1.823,1.981-1.98  c1.335-0.241,2.004-0.241,3.34,0c0.863,0.156,1.823,1.116,1.979,1.98C35.073,120.528,35.073,121.196,34.832,122.532"
   id="path55" />
<path
   fill="#2F7195"
   d="M34.832,131.531c-0.156,0.863-1.116,1.823-1.979,1.979c-1.336,0.241-2.005,0.241-3.34,0  c-0.865-0.156-1.824-1.116-1.981-1.979c-0.24-1.336-0.24-2.004,0-3.34c0.157-0.864,1.117-1.824,1.981-1.98  c1.335-0.242,2.004-0.242,3.34,0c0.863,0.156,1.823,1.116,1.979,1.98C35.073,129.527,35.073,130.195,34.832,131.531"
   id="path57" />
<path
   fill="#C73F33"
   d="M34.828,41.554c-0.156,0.865-1.117,1.824-1.98,1.981c-1.336,0.241-2.004,0.241-3.34,0  c-0.863-0.156-1.824-1.116-1.98-1.981c-0.242-1.335-0.242-2.004,0-3.34c0.156-0.864,1.117-1.823,1.98-1.98  c1.336-0.241,2.004-0.241,3.34,0c0.863,0.156,1.823,1.116,1.98,1.98C35.07,39.55,35.07,40.219,34.828,41.554"
   id="path59" />
<path
   fill="#7AA52A"
   d="M7.54,59.552c-0.156,0.864-1.116,1.823-1.98,1.98c-1.336,0.241-2.004,0.241-3.34,0  c-0.864-0.156-1.824-1.116-1.981-1.98c-0.24-1.336-0.24-2.004,0-3.34c0.157-0.865,1.117-1.824,1.981-1.98  c1.335-0.241,2.004-0.241,3.34,0c0.864,0.156,1.823,1.116,1.98,1.98C7.782,57.548,7.782,58.216,7.54,59.552"
   id="path61" />
<path
   fill="#717073"
   d="M42.113,72.307c-2.132,0-3.881-0.766-5.247-2.132c-1.968-1.968-1.913-4.4-1.913-7.762  c0-3.361-0.055-5.793,1.913-7.762c1.366-1.366,3.115-2.131,5.247-2.131c3.635,0,6.477,2.077,7.161,6.149h-3.854  c-0.382-1.558-1.366-2.76-3.279-2.76c-1.039,0-1.886,0.383-2.433,1.011c-0.738,0.82-0.957,1.749-0.957,5.493  c0,3.744,0.219,4.674,0.957,5.493c0.546,0.629,1.394,1.011,2.433,1.011c1.913,0,2.897-1.202,3.279-2.76h3.854  C48.59,70.23,45.72,72.307,42.113,72.307"
   id="path63"
   style="fill:#ffffff;fill-opacity:1" />
<path
   fill="#717073"
   d="M63.536,70.176c-1.367,1.367-3.034,2.132-5.248,2.132c-2.213,0-3.908-0.765-5.275-2.132  c-1.968-1.968-1.912-4.4-1.912-7.761c0-3.362-0.055-5.794,1.912-7.762c1.367-1.367,3.061-2.132,5.275-2.132  c2.214,0,3.881,0.765,5.248,2.132c1.967,1.968,1.94,4.4,1.94,7.762C65.476,65.776,65.503,68.208,63.536,70.176 M60.721,56.948  c-0.546-0.629-1.394-1.039-2.433-1.039c-1.038,0-1.913,0.41-2.46,1.039c-0.738,0.82-0.93,1.722-0.93,5.466  c0,3.743,0.192,4.646,0.93,5.465c0.546,0.629,1.421,1.038,2.46,1.038c1.039,0,1.886-0.409,2.433-1.038  c0.738-0.82,0.957-1.722,0.957-5.465C61.677,58.67,61.459,57.768,60.721,56.948"
   id="path65"
   style="fill:#ffffff;fill-opacity:1" />
<path
   fill="#717073"
   d="M80.333,70.176c-1.367,1.367-3.034,2.132-5.248,2.132c-2.213,0-3.908-0.765-5.275-2.132  c-1.968-1.968-1.912-4.4-1.912-7.761c0-3.362-0.055-5.794,1.912-7.762c1.367-1.367,3.061-2.132,5.275-2.132  c2.214,0,3.881,0.765,5.248,2.132c1.967,1.968,1.94,4.4,1.94,7.762C82.273,65.776,82.3,68.208,80.333,70.176 M77.518,56.948  c-0.546-0.629-1.394-1.039-2.433-1.039c-1.039,0-1.913,0.41-2.46,1.039c-0.738,0.82-0.93,1.722-0.93,5.466  c0,3.743,0.192,4.646,0.93,5.465c0.546,0.629,1.421,1.038,2.46,1.038c1.039,0,1.886-0.409,2.433-1.038  c0.738-0.82,0.957-1.722,0.957-5.465C78.475,58.67,78.256,57.768,77.518,56.948"
   id="path67"
   style="fill:#ffffff;fill-opacity:1" />
<path
   fill="#717073"
   d="M95.275,72.144l-3.799-7.762h-2.733v7.762h-3.799V52.685h7.624c3.963,0,6.313,2.706,6.313,5.958  c0,2.733-1.667,4.427-3.553,5.111l4.346,8.391H95.275z M92.323,56.074h-3.58v5.138h3.58c1.667,0,2.76-1.065,2.76-2.569  C95.084,57.14,93.99,56.074,92.323,56.074"
   id="path69"
   style="fill:#ffffff;fill-opacity:1" />
<path
   fill="#717073"
   d="M113.683,70.285c-1.284,1.284-3.116,1.858-5.138,1.858h-7.023V52.685h7.023c2.022,0,3.854,0.573,5.138,1.858  c2.186,2.186,1.968,4.864,1.968,7.789C115.65,65.256,115.869,68.098,113.683,70.285 M111.031,57.276  c-0.656-0.793-1.531-1.202-2.842-1.202h-2.87v12.68h2.87c1.311,0,2.186-0.409,2.842-1.202c0.711-0.875,0.82-2.269,0.82-5.22  C111.851,59.38,111.743,58.15,111.031,57.276"
   id="path71"
   style="fill:#ffffff;fill-opacity:1" />
<rect
   x="118.772"
   y="52.685"
   fill="#717073"
   width="3.799"
   height="19.458"
   id="rect73"
   style="fill:#ffffff;fill-opacity:1" />
<polygon
   fill="#717073"
   points="137.639,72.143 129.931,60.2 129.931,72.143 126.133,72.143 126.133,52.685 129.521,52.685   137.228,64.601 137.228,52.685 141.028,52.685 141.028,72.143 "
   id="polygon75"
   style="fill:#ffffff;fill-opacity:1" />
<path
   fill="#717073"
   d="M156.084,72.144l-1.147-3.444h-6.915l-1.174,3.444h-3.963l7.078-19.459h2.979l7.106,19.459H156.084z   M151.548,58.424l-2.46,7.078h4.837L151.548,58.424z"
   id="path77"
   style="fill:#ffffff;fill-opacity:1" />
<path
   fill="#717073"
   d="M174.082,70.285c-1.284,1.284-3.117,1.858-5.138,1.858h-7.024V52.685h7.024c2.022,0,3.854,0.573,5.138,1.858  c2.186,2.186,1.967,4.864,1.967,7.789C176.049,65.256,176.267,68.098,174.082,70.285 M171.43,57.276  c-0.656-0.793-1.53-1.202-2.841-1.202h-2.87v12.68h2.87c1.311,0,2.186-0.409,2.841-1.202c0.711-0.875,0.82-2.269,0.82-5.22  C172.25,59.38,172.141,58.15,171.43,57.276"
   id="path79"
   style="fill:#ffffff;fill-opacity:1" />
<path
   fill="#717073"
   d="M191.149,70.176c-1.367,1.367-3.034,2.132-5.248,2.132c-2.213,0-3.908-0.765-5.275-2.132  c-1.967-1.968-1.912-4.4-1.912-7.761c0-3.362-0.055-5.794,1.912-7.762c1.367-1.367,3.062-2.132,5.275-2.132  c2.214,0,3.881,0.765,5.248,2.132c1.967,1.968,1.94,4.4,1.94,7.762C193.089,65.776,193.116,68.208,191.149,70.176 M188.333,56.948  c-0.546-0.629-1.394-1.039-2.433-1.039c-1.039,0-1.913,0.41-2.46,1.039c-0.738,0.82-0.93,1.722-0.93,5.466  c0,3.743,0.192,4.646,0.93,5.465c0.546,0.629,1.421,1.038,2.46,1.038c1.039,0,1.886-0.409,2.433-1.038  c0.737-0.82,0.957-1.722,0.957-5.465C189.29,58.67,189.071,57.768,188.333,56.948"
   id="path81"
   style="fill:#ffffff;fill-opacity:1" />
<path
   fill="#717073"
   d="M206.581,72.227l-3.816-7.795h-2.745v7.795h-3.815V52.685h7.658c3.98,0,6.34,2.717,6.34,5.983  c0,2.745-1.674,4.447-3.568,5.133L211,72.227H206.581z M203.616,56.088h-3.596v5.16h3.596c1.674,0,2.772-1.07,2.772-2.58  C206.388,57.159,205.29,56.088,203.616,56.088"
   id="path83"
   style="fill:#ffffff;fill-opacity:1" />
<polygon
   fill="#717073"
   points="35.018,90.045 35.018,77.02 42.921,77.02 42.921,77.898 36.006,77.898 36.006,83.038 41.897,83.038   41.897,83.916 36.006,83.916 36.006,89.167 42.921,89.167 42.921,90.045 "
   id="polygon85"
   style="fill:#ffffff;fill-opacity:1" />
<polygon
   fill="#717073"
   points="45.315,90.045 45.315,77.02 46.303,77.02 46.303,89.167 53.218,89.167 53.218,90.045 "
   id="polygon87"
   style="fill:#ffffff;fill-opacity:1" />
<path
   fill="#717073"
   d="M55.393,90.045V77.02h7.903v0.878h-6.915v5.141h5.891v0.878h-5.891v5.25h6.915v0.879H55.393z M59.094,76.123  h-1.061l1.775-2.689h1.226L59.094,76.123z"
   id="path89"
   style="fill:#ffffff;fill-opacity:1" />
<path
   fill="#717073"
   d="M69.365,90.155c-1.225,0-2.397-0.476-3.256-1.335c-1.189-1.189-1.208-2.342-1.208-5.287  c0-2.945,0.019-4.098,1.208-5.287c0.859-0.86,2.031-1.335,3.256-1.335c2.323,0,4.007,1.445,4.427,3.805h-1.005  c-0.385-1.793-1.665-2.927-3.421-2.927c-0.933,0-1.811,0.348-2.47,1.006c-0.933,0.933-1.006,1.939-1.006,4.738  c0,2.799,0.073,3.805,1.006,4.738c0.659,0.659,1.537,1.007,2.47,1.007c1.757,0,3.073-1.134,3.458-2.927h0.969  C73.372,88.709,71.652,90.155,69.365,90.155"
   id="path91"
   style="fill:#ffffff;fill-opacity:1" />
<polygon
   fill="#717073"
   points="79.917,77.898 79.917,90.045 78.929,90.045 78.929,77.898 75.051,77.898 75.051,77.02 83.813,77.02   83.813,77.898 "
   id="polygon93"
   style="fill:#ffffff;fill-opacity:1" />
<path
   fill="#717073"
   d="M93.671,90.045l-3.11-6.001h-3.585v6.001h-0.988V77.02h4.957c2.123,0,3.732,1.225,3.732,3.494  c0,1.939-1.171,3.202-3,3.513l3.147,6.019H93.671z M90.817,77.898h-3.841v5.269h3.841c1.665,0,2.873-0.842,2.873-2.635  C93.69,78.739,92.482,77.898,90.817,77.898"
   id="path95"
   style="fill:#ffffff;fill-opacity:1" />
<rect
   x="97.295"
   y="77.02"
   fill="#717073"
   width="0.988"
   height="13.025"
   id="rect97"
   style="fill:#ffffff;fill-opacity:1" />
<path
   fill="#717073"
   d="M105.518,90.155c-1.225,0-2.397-0.476-3.256-1.335c-1.189-1.189-1.208-2.342-1.208-5.287  c0-2.945,0.019-4.098,1.208-5.287c0.859-0.86,2.031-1.335,3.256-1.335c2.323,0,4.006,1.445,4.427,3.805h-1.007  c-0.384-1.793-1.665-2.927-3.421-2.927c-0.933,0-1.811,0.348-2.469,1.006c-0.933,0.933-1.006,1.939-1.006,4.738  c0,2.799,0.073,3.805,1.006,4.738c0.658,0.659,1.536,1.007,2.469,1.007c1.756,0,3.073-1.134,3.457-2.927h0.97  C109.524,88.709,107.804,90.155,105.518,90.155"
   id="path99"
   style="fill:#ffffff;fill-opacity:1" />
<path
   fill="#717073"
   d="M119.973,88.819c-0.86,0.86-2.031,1.335-3.257,1.335c-1.225,0-2.396-0.475-3.256-1.335  c-1.189-1.189-1.208-2.342-1.208-5.287c0-2.945,0.019-4.097,1.208-5.287c0.86-0.86,2.031-1.335,3.256-1.335  c1.226,0,2.397,0.475,3.257,1.335c1.189,1.189,1.207,2.342,1.207,5.287C121.18,86.477,121.162,87.63,119.973,88.819 M119.186,78.794  c-0.659-0.658-1.537-1.006-2.47-1.006c-0.933,0-1.811,0.348-2.469,1.006c-0.933,0.933-1.006,1.94-1.006,4.738  c0,2.799,0.073,3.805,1.006,4.738c0.658,0.659,1.537,1.007,2.469,1.007c0.933,0,1.811-0.348,2.47-1.007  c0.933-0.933,1.006-1.939,1.006-4.738C120.192,80.734,120.12,79.727,119.186,78.794"
   id="path101"
   style="fill:#ffffff;fill-opacity:1" />
<polygon
   fill="#717073"
   points="137.388,90.045 129.869,78.721 129.869,90.045 128.881,90.045 128.881,77.02 129.869,77.02   137.388,88.307 137.388,77.02 138.376,77.02 138.376,90.045 "
   id="polygon103"
   style="fill:#ffffff;fill-opacity:1" />
<path
   fill="#717073"
   d="M149.839,90.045l-1.135-3.165h-6.073l-1.134,3.165h-1.061l4.793-13.025h0.878l4.793,13.025H149.839z   M145.668,78.336l-2.726,7.665h5.451L145.668,78.336z"
   id="path105"
   style="fill:#ffffff;fill-opacity:1" />
<path
   fill="#717073"
   d="M156.565,90.155c-1.225,0-2.397-0.476-3.256-1.335c-1.189-1.189-1.207-2.342-1.207-5.287  c0-2.945,0.018-4.098,1.207-5.287c0.859-0.86,2.031-1.335,3.256-1.335c2.323,0,4.006,1.445,4.427,3.805h-1.006  c-0.385-1.793-1.665-2.927-3.421-2.927c-0.933,0-1.811,0.348-2.47,1.006c-0.933,0.933-1.006,1.939-1.006,4.738  c0,2.799,0.073,3.805,1.006,4.738c0.659,0.659,1.537,1.007,2.47,1.007c1.756,0,3.073-1.134,3.458-2.927h0.969  C160.57,88.709,158.851,90.155,156.565,90.155"
   id="path107"
   style="fill:#ffffff;fill-opacity:1" />
<rect
   x="163.565"
   y="77.02"
   fill="#717073"
   width="0.988"
   height="13.025"
   id="rect109"
   style="fill:#ffffff;fill-opacity:1" />
<path
   fill="#717073"
   d="M175.044,88.819c-0.859,0.86-2.031,1.335-3.256,1.335c-1.227,0-2.397-0.475-3.257-1.335  c-1.189-1.189-1.208-2.342-1.208-5.287c0-2.945,0.019-4.097,1.208-5.287c0.86-0.86,2.03-1.335,3.257-1.335  c1.225,0,2.397,0.475,3.256,1.335c1.189,1.189,1.207,2.342,1.207,5.287C176.251,86.477,176.233,87.63,175.044,88.819   M174.257,78.794c-0.659-0.658-1.537-1.006-2.469-1.006c-0.933,0-1.811,0.348-2.47,1.006c-0.933,0.933-1.006,1.94-1.006,4.738  c0,2.799,0.073,3.805,1.006,4.738c0.659,0.659,1.537,1.007,2.47,1.007c0.933,0,1.811-0.348,2.469-1.007  c0.933-0.933,1.006-1.939,1.006-4.738C175.263,80.734,175.191,79.727,174.257,78.794"
   id="path111"
   style="fill:#ffffff;fill-opacity:1" />
<polygon
   fill="#717073"
   points="187.525,90.045 180.007,78.721 180.007,90.045 179.019,90.045 179.019,77.02 180.007,77.02   187.525,88.307 187.525,77.02 188.513,77.02 188.513,90.045 "
   id="polygon113"
   style="fill:#ffffff;fill-opacity:1" />
<path
   fill="#717073"
   d="M199.977,90.045l-1.135-3.165h-6.074l-1.134,3.165h-1.061l4.793-13.025h0.879l4.793,13.025H199.977z   M195.805,78.336l-2.726,7.665h5.451L195.805,78.336z"
   id="path115"
   style="fill:#ffffff;fill-opacity:1" />
<polygon
   fill="#717073"
   points="203.097,90.045 203.097,77.02 204.085,77.02 204.085,89.167 210.999,89.167 210.999,90.045 "
   id="polygon117"
   style="fill:#ffffff;fill-opacity:1" />
</svg>